<?xml version="1.0" encoding="UTF-8"?>
<svg version="1.1" xmlns="http://www.w3.org/2000/svg" width="519" height="192">
<path d="M0 0 C171.27 0 342.54 0 519 0 C519 63.36 519 126.72 519 192 C347.73 192 176.46 192 0 192 C0 128.64 0 65.28 0 0 Z " fill="#FEFDFD" transform="translate(0,0)"/>
<path d="M0 0 C1.31871094 -0.00773438 2.63742188 -0.01546875 3.99609375 -0.0234375 C7.76546689 0.39767538 8.93208892 0.76090705 11.5625 3.375 C12.08007812 5.76342773 12.08007812 5.76342773 12.09375 8.55859375 C12.10148437 10.07356445 12.10148437 10.07356445 12.109375 11.61914062 C12.09390625 12.67294922 12.0784375 13.72675781 12.0625 14.8125 C12.08570312 16.38741211 12.08570312 16.38741211 12.109375 17.99414062 C12.10421875 19.00541016 12.0990625 20.01667969 12.09375 21.05859375 C12.08923828 21.98212646 12.08472656 22.90565918 12.08007812 23.85717773 C11.36961112 27.31333162 10.44893424 28.32914222 7.5625 30.375 C1.66255706 32.43516244 -4.38219456 32.68297421 -10.57421875 32.67578125 C-11.41612259 32.68006638 -12.25802643 32.6843515 -13.1254425 32.68876648 C-14.89603788 32.69447051 -16.66665668 32.69503929 -18.43725586 32.69067383 C-21.10117087 32.68752814 -23.76395722 32.71097289 -26.42773438 32.73632812 C-41.57469971 32.79235447 -59.32524321 31.98444037 -70.96875 21 C-75.32137509 16.18432969 -76.86973414 11.71164457 -77.5546875 5.29296875 C-77.4375 3.375 -77.4375 3.375 -75.4375 1.375 C-71.83427828 0.86929174 -68.19718618 0.95828283 -64.5625 0.9375 C-63.55574219 0.90462891 -62.54898438 0.87175781 -61.51171875 0.83789062 C-54.11154351 0.78383888 -54.11154351 0.78383888 -50.80078125 3.6875 C-49.4375 6.375 -49.4375 6.375 -48.5 9.8125 C-46.90034563 15.17604702 -44.36014617 18.30236582 -39.46875 21.03125 C-34.49250958 23.04862713 -29.41230747 22.73609247 -24.125 22.625 C-23.12404297 22.61984375 -22.12308594 22.6146875 -21.09179688 22.609375 C-16.10157618 22.74936163 -16.10157618 22.74936163 -11.4375 21.375 C-11.40011719 20.11042969 -11.36273438 18.84585938 -11.32421875 17.54296875 C-11.25856167 15.8827827 -11.19211424 14.22262778 -11.125 12.5625 C-11.10244141 11.72912109 -11.07988281 10.89574219 -11.05664062 10.03710938 C-11.0034668 8.83344727 -11.0034668 8.83344727 -10.94921875 7.60546875 C-10.90994263 6.49788208 -10.90994263 6.49788208 -10.86987305 5.36791992 C-9.62107994 -0.3880926 -4.97111746 -0.0857911 0 0 Z " fill="#BD2836" transform="translate(93.4375,141.625)"/>
<path d="M0 0 C1.40835869 -0.01429802 1.40835869 -0.01429802 2.84516907 -0.02888489 C4.37623543 -0.02751778 4.37623543 -0.02751778 5.93823242 -0.02612305 C6.99217697 -0.03040817 8.04612152 -0.0346933 9.13200378 -0.03910828 C11.37233767 -0.04486398 13.61269025 -0.04534277 15.85302734 -0.04101562 C19.24179256 -0.03788968 22.62965558 -0.06118015 26.01831055 -0.08666992 C55.58550485 -0.17474405 55.58550485 -0.17474405 65.48120117 8.2746582 C68.912673 12.02783052 69.00642616 15.87893053 68.81713867 20.77856445 C68.16227118 25.64438222 66.48252447 28.68375427 62.63354492 31.7434082 C53.45522961 37.47360869 42.39885683 37.58366231 31.87963867 37.5402832 C30.31410751 37.54315338 30.31410751 37.54315338 28.71694946 37.54608154 C26.53728999 37.54743018 24.35762212 37.54382727 22.17797852 37.53540039 C18.82965449 37.52457235 15.48185375 37.53539606 12.13354492 37.5480957 C10.00724165 37.546776 7.88093871 37.54421754 5.75463867 37.5402832 C4.75266449 37.54433167 3.75069031 37.54838013 2.71835327 37.55255127 C1.79624054 37.54624695 0.87412781 37.53994263 -0.07592773 37.53344727 C-0.8880069 37.53185608 -1.70008606 37.53026489 -2.53677368 37.52862549 C-4.51879883 37.2746582 -4.51879883 37.2746582 -6.51879883 35.2746582 C-6.70629883 32.2121582 -6.70629883 32.2121582 -6.51879883 29.2746582 C-4.50316845 27.25902782 -0.41350066 28.06582429 2.35620117 28.02856445 C3.99813279 27.99558625 5.64005974 27.96237536 7.28198242 27.92895508 C9.87097477 27.88182477 12.45995395 27.83748344 15.04907227 27.79785156 C17.54749974 27.75770942 20.04551043 27.70622907 22.54370117 27.65356445 C23.30344238 27.6451503 24.06318359 27.63673615 24.84594727 27.62806702 C34.31424493 27.47713817 34.31424493 27.47713817 42.54370117 23.5246582 C43.81515919 20.47315897 44.02676617 18.54804821 43.48120117 15.2746582 C39.78156661 11.57502364 36.55769652 10.17523918 31.39282227 10.08520508 C30.57542572 10.06848755 29.75802917 10.05177002 28.91586304 10.0345459 C28.037659 10.02097046 27.15945496 10.00739502 26.25463867 9.9934082 C25.35121735 9.97499878 24.44779602 9.95658936 23.51699829 9.93762207 C19.64776537 9.85887055 15.77835985 9.79100528 11.90893555 9.72241211 C9.08657841 9.67082979 6.26437768 9.61354031 3.44213867 9.5559082 C2.55988617 9.54233276 1.67763367 9.52875732 0.76864624 9.51477051 C-5.40595199 9.38750505 -5.40595199 9.38750505 -6.51879883 8.2746582 C-6.70629883 5.3371582 -6.70629883 5.3371582 -6.51879883 2.2746582 C-4.0606608 -0.18347983 -3.3790886 0.01882953 0 0 Z " fill="#BF2D3A" transform="translate(170.518798828125,108.725341796875)"/>
<path d="M0 0 C1.1409613 -0.0033284 2.28192261 -0.0066568 3.4574585 -0.01008606 C5.86128334 -0.01513646 8.26511516 -0.01749497 10.66894531 -0.01733398 C14.36014138 -0.01953171 18.05104382 -0.03773812 21.7421875 -0.05664062 C24.07812398 -0.0595726 26.41406187 -0.06155871 28.75 -0.0625 C29.85829163 -0.06968552 30.96658325 -0.07687103 32.10845947 -0.08427429 C33.64080231 -0.07965935 33.64080231 -0.07965935 35.20410156 -0.07495117 C36.10533752 -0.07637619 37.00657349 -0.07780121 37.93511963 -0.07926941 C40.109375 0.16796875 40.109375 0.16796875 42.109375 2.16796875 C42.359375 4.66796875 42.359375 4.66796875 42.109375 7.16796875 C39.14012739 10.13721636 35.8981055 9.46581665 31.91796875 9.4765625 C30.23372088 9.50174811 28.54947617 9.52714572 26.86523438 9.55273438 C24.21477271 9.58132857 21.56436679 9.60534387 18.91381836 9.62426758 C16.35239051 9.64612727 13.79165262 9.68560742 11.23046875 9.7265625 C10.45199081 9.72667831 9.67351288 9.72679413 8.8714447 9.72691345 C3.30979313 9.82534812 -1.8336574 10.74616354 -6.890625 13.16796875 C-8.41909161 16.22490197 -8.12304945 18.79781422 -7.890625 22.16796875 C-6.9691858 24.59101243 -6.9691858 24.59101243 -4.890625 26.16796875 C0.57094517 28.10677803 5.52524572 28.48728178 11.2890625 28.546875 C12.14243195 28.56386948 12.99580139 28.58086395 13.87503052 28.59837341 C16.57807189 28.65115231 19.28109959 28.69167843 21.984375 28.73046875 C24.70900162 28.77439111 27.4335102 28.8209896 30.1579895 28.87327576 C31.8483892 28.90525933 33.53889442 28.9321412 35.22946167 28.95350647 C40.99754618 29.05613993 40.99754618 29.05613993 42.109375 30.16796875 C42.15030437 32.50094308 42.15179223 34.835021 42.109375 37.16796875 C34.51468519 37.27015271 26.92017542 37.3397608 19.32495117 37.38769531 C16.74610774 37.4076976 14.167309 37.43490831 11.58862305 37.46972656 C7.86235461 37.51874692 4.13669053 37.54105249 0.41015625 37.55859375 C-0.7258049 37.57923889 -1.86176605 37.59988403 -3.03215027 37.62115479 C-12.10680846 37.62364685 -22.77554476 36.69007289 -29.640625 30.10546875 C-33.79235848 24.68515004 -33.76305027 18.77103057 -32.890625 12.16796875 C-30.33394881 6.66428413 -25.64894846 4.15060352 -20.234375 1.89453125 C-13.57890121 -0.16866562 -6.89865649 0.00697784 0 0 Z " fill="#BD2836" transform="translate(287.890625,135.83203125)"/>
<path d="M0 0 C4.78014258 4.75727108 5.83465167 9.37103503 6 16 C2.47441767 17.76279117 -1.55395591 17.22713881 -5.4375 17.25 C-6.30955078 17.270625 -7.18160156 17.29125 -8.08007812 17.3125 C-8.91861328 17.31765625 -9.75714844 17.3228125 -10.62109375 17.328125 C-11.77242798 17.34214355 -11.77242798 17.34214355 -12.94702148 17.35644531 C-15.53738636 16.9066971 -16.39017787 16.03667827 -18 14 C-18.73828125 11.9140625 -18.73828125 11.9140625 -19.3125 9.625 C-20.87139547 4.65753517 -22.60177527 2.79118108 -27 0 C-32.8288643 -2.11687655 -38.20821631 -2.33452423 -44.375 -2.3125 C-45.26960938 -2.32861328 -46.16421875 -2.34472656 -47.0859375 -2.36132812 C-54.05411679 -2.36639221 -61.0107027 -1.67463442 -66.375 3.125 C-68.19204165 6.33976599 -69.22965776 9.45743085 -70.19140625 13.01171875 C-71 15 -71 15 -74 17 C-76.05297852 17.25878906 -76.05297852 17.25878906 -78.37890625 17.265625 C-79.21744141 17.26820313 -80.05597656 17.27078125 -80.91992188 17.2734375 C-81.79197266 17.26570313 -82.66402344 17.25796875 -83.5625 17.25 C-84.87637695 17.26160156 -84.87637695 17.26160156 -86.21679688 17.2734375 C-87.05404297 17.27085937 -87.89128906 17.26828125 -88.75390625 17.265625 C-89.52033447 17.26336914 -90.2867627 17.26111328 -91.07641602 17.25878906 C-93 17 -93 17 -95 15 C-95.46399845 10.36001555 -95.50308708 7.98682467 -93.375 3.8125 C-84.84511471 -6.28867995 -73.2588661 -10.31393404 -60.34716797 -11.81030273 C-40.07557181 -13.4486458 -16.44762707 -13.73938326 0 0 Z " fill="#DF542F" transform="translate(497,121)"/>
<path d="M0 0 C3.58869783 2.44544997 6.45630012 5.29365194 9.29296875 8.5625 C10.28296875 9.5834375 10.28296875 9.5834375 11.29296875 10.625 C12.29296875 12.5625 12.29296875 12.5625 12.29296875 15.5 C10.96516321 19.56640446 9.82253105 21.09180639 6.29296875 23.5625 C3.44345902 24.05408209 0.70611304 24.2490072 -2.18359375 24.32421875 C-4.9538007 24.38466277 -4.9538007 24.38466277 -7.70703125 26.5625 C-8.34816434 31.23361248 -7.79212749 34.76251464 -5.1875 38.75390625 C5.11229455 51.33650487 23.411998 57.24595928 38.29296875 62.5625 C37.96296875 63.8825 37.63296875 65.2025 37.29296875 66.5625 C28.33286396 67.50566892 21.24404382 64.23096295 13.29296875 60.5625 C12.15988281 60.04429688 11.02679688 59.52609375 9.859375 58.9921875 C-0.78207092 53.70340165 -10.3788575 46.40342627 -15.70703125 35.5625 C-16.70462412 30.97797394 -16.10477797 27.42163292 -14.14453125 23.1875 C-10.21020486 18.95053312 -6.0225196 17.60384915 -0.39453125 17.0625 C1.43078125 16.815 1.43078125 16.815 3.29296875 16.5625 C4.28296875 15.0775 4.28296875 15.0775 5.29296875 13.5625 C4.79796875 12.94375 4.30296875 12.325 3.79296875 11.6875 C2.29296875 9.5625 2.29296875 9.5625 2.29296875 7.5625 C1.71546875 7.27375 1.13796875 6.985 0.54296875 6.6875 C-0.81294559 6.00954283 -2.1535273 5.29739297 -3.45703125 4.5234375 C-11.35100146 1.15205439 -20.28437565 3.34946147 -27.89453125 6.375 C-29.89310145 7.18941795 -31.88766807 8.01284652 -33.88085938 8.84033203 C-38.03550105 10.48330397 -42.3655471 11.54097432 -46.70703125 12.5625 C-47.93808594 12.90925781 -49.16914063 13.25601562 -50.4375 13.61328125 C-57.85557317 15.2368711 -65.52400629 14.99691273 -73.08203125 15 C-73.88129028 15.00306152 -74.68054932 15.00612305 -75.50402832 15.00927734 C-87.8497941 15.02167829 -99.05931258 13.9697449 -110.70703125 9.5625 C-111.39453125 7.75 -111.39453125 7.75 -111.70703125 5.5625 C-110.51171875 3.8046875 -110.51171875 3.8046875 -108.70703125 2.5625 C-102.20254025 2.77232229 -96.03350905 4.31938942 -89.72265625 5.84375 C-88.7275 6.0809375 -87.73234375 6.318125 -86.70703125 6.5625 C-85.55654297 6.85060547 -85.55654297 6.85060547 -84.3828125 7.14453125 C-80.46802513 7.75603818 -76.60098819 7.74685246 -72.64453125 7.75 C-71.86142578 7.76224609 -71.07832031 7.77449219 -70.27148438 7.78710938 C-59.07917537 7.81429717 -48.58102396 5.16775442 -37.89453125 2.0625 C-36.81494141 1.75441406 -35.73535156 1.44632813 -34.62304688 1.12890625 C-29.09020583 -0.447031 -29.09020583 -0.447031 -23.57592773 -2.08618164 C-15.0452636 -4.66031852 -7.8341135 -4.38411439 0 0 Z " fill="#E05733" transform="translate(464.70703125,16.4375)"/>
<path d="M0 0 C0.82965271 -0.00095673 1.65930542 -0.00191345 2.51409912 -0.00289917 C4.26216712 -0.00357648 6.01023769 -0.00175369 7.75830078 0.00244141 C10.40012428 0.00776864 13.04177566 0.00249517 15.68359375 -0.00390625 C40.27803134 -0.01958185 40.27803134 -0.01958185 45.171875 4.1328125 C44.841875 6.4428125 44.511875 8.7528125 44.171875 11.1328125 C42.4427976 11.16006591 40.71359324 11.17932237 38.984375 11.1953125 C37.53998047 11.21271484 37.53998047 11.21271484 36.06640625 11.23046875 C33.171875 11.1328125 33.171875 11.1328125 30.79589844 10.63720703 C19.84455136 8.53211929 1.978459 7.90723033 -7.95703125 13.28515625 C-12.22448688 16.50133889 -14.20418039 20.35239975 -16.1015625 25.27734375 C-16.828125 27.1328125 -16.828125 27.1328125 -17.828125 28.1328125 C-19.53584858 28.21995081 -21.24711149 28.23981257 -22.95703125 28.23046875 C-24.50874023 28.22563477 -24.50874023 28.22563477 -26.09179688 28.22070312 C-27.18041016 28.21232422 -28.26902344 28.20394531 -29.390625 28.1953125 C-31.0293457 28.18854492 -31.0293457 28.18854492 -32.70117188 28.18164062 C-35.41020995 28.16981076 -38.11914099 28.15332793 -40.828125 28.1328125 C-41.890625 26.37109375 -41.890625 26.37109375 -42.828125 24.1328125 C-40.8931023 16.75553845 -37.6099099 11.38943312 -30.98046875 7.43359375 C-20.69481621 2.16968483 -11.50194876 -0.02975637 0 0 Z " fill="#BE2937" transform="translate(58.828125,108.8671875)"/>
<path d="M0 0 C1.09699219 -0.02578125 2.19398438 -0.0515625 3.32421875 -0.078125 C6.65027868 0.28708942 7.9697945 0.90180807 10.3125 3.25 C12.04928173 8.46034518 12.2724295 13.98704292 9.9375 19.0625 C6.83197781 23.5051364 2.40556083 24.88866856 -2.6875 26.25 C-7.51909093 26.77911339 -12.29984672 26.76469411 -17.15625 26.7109375 C-18.52721991 26.70854774 -19.89819314 26.70764888 -21.26916504 26.7081604 C-24.12008625 26.70505541 -26.97049629 26.68865627 -29.82128906 26.66162109 C-33.47765304 26.62738432 -37.1334648 26.62000105 -40.7899704 26.62151146 C-43.61064942 26.62096874 -46.43120745 26.61002173 -49.25184631 26.59550858 C-51.25605809 26.58605631 -53.26029518 26.58258663 -55.26452637 26.57919312 C-56.47338501 26.56643341 -57.68224365 26.55367371 -58.92773438 26.54052734 C-59.99455444 26.53290375 -61.06137451 26.52528015 -62.16052246 26.51742554 C-64.6875 26.25 -64.6875 26.25 -66.6875 24.25 C-66.9375 21.75 -66.9375 21.75 -66.6875 19.25 C-64.29225231 16.85475231 -63.76488552 16.99706947 -60.50073242 16.97875977 C-59.20379707 16.96347984 -59.20379707 16.96347984 -57.88066101 16.94789124 C-56.47600334 16.94468117 -56.47600334 16.94468117 -55.04296875 16.94140625 C-53.06705441 16.91624123 -51.09114302 16.89084328 -49.11523438 16.86523438 C-45.99471839 16.83650667 -42.87425388 16.81249551 -39.75366211 16.79370117 C-36.74565497 16.77202999 -33.7382629 16.73258181 -30.73046875 16.69140625 C-29.800103 16.69129044 -28.86973724 16.69117462 -27.91117859 16.6910553 C-22.54469969 16.6091609 -18.67887938 16.24137938 -14.6875 12.25 C-14.45386119 10.40108054 -14.27446365 8.54511969 -14.125 6.6875 C-14.04121094 5.67558594 -13.95742187 4.66367188 -13.87109375 3.62109375 C-13.78021484 2.44740234 -13.78021484 2.44740234 -13.6875 1.25 C-9.1198017 0.40019567 -4.64708709 0.10466412 0 0 Z " fill="#BE2B38" transform="translate(229.6875,146.75)"/>
<path d="M0 0 C0.83853516 0.00064453 1.67707031 0.00128906 2.54101562 0.00195312 C3.8490918 0.02612305 3.8490918 0.02612305 5.18359375 0.05078125 C6.05951172 0.04755859 6.93542969 0.04433594 7.83789062 0.04101562 C14.35400694 0.09619444 14.35400694 0.09619444 16.62109375 2.36328125 C16.93994141 4.24267578 16.93994141 4.24267578 17.03515625 6.49609375 C17.07382812 7.30175781 17.1125 8.10742188 17.15234375 8.9375 C17.18328125 9.77925781 17.21421875 10.62101563 17.24609375 11.48828125 C17.28476562 12.33777344 17.3234375 13.18726563 17.36328125 14.0625 C17.45765869 16.16239809 17.54046961 18.26281016 17.62109375 20.36328125 C19.0594458 20.39301025 19.0594458 20.39301025 20.52685547 20.42333984 C24.07920928 20.4993227 27.63114951 20.58805055 31.18310547 20.68066406 C32.72143396 20.71898426 34.259853 20.75383181 35.79833984 20.78515625 C38.00781651 20.83074184 40.21666823 20.88874465 42.42578125 20.94921875 C43.11541962 20.96076996 43.80505798 20.97232117 44.51559448 20.98422241 C49.39335034 21.13553784 49.39335034 21.13553784 51.62109375 23.36328125 C51.87109375 26.36328125 51.87109375 26.36328125 51.62109375 29.36328125 C49.10820642 31.87616858 48.26788016 31.62391462 44.79174805 31.65380859 C43.78697922 31.6665683 42.78221039 31.679328 41.74699402 31.69247437 C40.11266167 31.69581284 40.11266167 31.69581284 38.4453125 31.69921875 C37.32800247 31.70587555 36.21069244 31.71253235 35.05952454 31.71939087 C32.6914739 31.72953188 30.3233946 31.73420744 27.95532227 31.73388672 C24.33366603 31.73825104 20.71323659 31.7745327 17.09179688 31.8125 C14.79297292 31.81836958 12.49414317 31.82233803 10.1953125 31.82421875 C9.11183029 31.83858978 8.02834808 31.85296082 6.91203308 31.86776733 C-0.61715035 31.82208812 -0.61715035 31.82208812 -4.53979492 29.45947266 C-8.48196219 24.96624975 -7.59993201 20.15181586 -7.62890625 14.42578125 C-7.64953125 13.41064453 -7.67015625 12.39550781 -7.69140625 11.34960938 C-7.6965625 10.37572266 -7.70171875 9.40183594 -7.70703125 8.3984375 C-7.71637695 7.50519775 -7.72572266 6.61195801 -7.73535156 5.69165039 C-7.37890625 3.36328125 -7.37890625 3.36328125 -6.13208008 1.57128906 C-3.93443231 0.0570207 -2.65521151 -0.01031204 0 0 Z " fill="#E05732" transform="translate(353.37890625,142.63671875)"/>
<path d="M0 0 C1.11876526 -0.0033284 2.23753052 -0.0066568 3.39019775 -0.01008606 C5.74694407 -0.01513591 8.1036975 -0.01749499 10.46044922 -0.01733398 C14.07921918 -0.01953191 17.69768972 -0.03773945 21.31640625 -0.05664062 C23.60676979 -0.05957258 25.89713478 -0.0615587 28.1875 -0.0625 C29.27391785 -0.06968552 30.36033569 -0.07687103 31.47967529 -0.08427429 C32.48121643 -0.08119766 33.48275757 -0.07812103 34.51464844 -0.07495117 C35.39811951 -0.07637619 36.28159058 -0.07780121 37.1918335 -0.07926941 C39.328125 0.16796875 39.328125 0.16796875 41.328125 2.16796875 C41.515625 5.23046875 41.515625 5.23046875 41.328125 8.16796875 C39.19974414 10.29634961 34.39031276 9.35429438 31.4375 9.37890625 C29.59504334 9.40698403 27.75259554 9.43564855 25.91015625 9.46484375 C22.99593437 9.50606191 20.08187634 9.54293477 17.16748047 9.56933594 C14.36130203 9.59698302 11.5558845 9.64286664 8.75 9.69140625 C7.4481778 9.69628555 7.4481778 9.69628555 6.12005615 9.70126343 C1.42601639 9.79641679 -1.91687421 10.0205945 -5.671875 13.16796875 C-6.488782 15.88452247 -6.488782 15.88452247 -6.484375 18.85546875 C-6.53207031 19.84933594 -6.57976562 20.84320313 -6.62890625 21.8671875 C-6.65017578 23.00607422 -6.65017578 23.00607422 -6.671875 24.16796875 C-10.1090916 24.28401554 -13.54580586 24.35516383 -16.984375 24.41796875 C-17.96083984 24.45148438 -18.93730469 24.485 -19.94335938 24.51953125 C-20.88115234 24.53242188 -21.81894531 24.5453125 -22.78515625 24.55859375 C-24.08126831 24.59001465 -24.08126831 24.59001465 -25.40356445 24.62207031 C-27.671875 24.16796875 -27.671875 24.16796875 -29.45019531 22.29370117 C-31.66289048 18.4435939 -31.27260993 14.46392206 -30.671875 10.16796875 C-28.33545033 5.4951194 -24.69778496 3.95299 -20.0859375 1.96484375 C-13.51032744 -0.20574598 -6.84606464 0.00706512 0 0 Z " fill="#DF5530" transform="translate(288.671875,108.83203125)"/>
<path d="M0 0 C0.86818359 -0.02900391 1.73636719 -0.05800781 2.63085938 -0.08789062 C9.01107612 -0.1515459 9.01107612 -0.1515459 12.17578125 2.01953125 C13.7614944 4.4247344 14.68548623 6.57287602 15.5625 9.3125 C17.34885444 14.03904093 18.98474014 16.09943653 23.6875 18.3125 C30.53430051 20.71861077 37.18916618 20.71340037 44.38867188 20.87890625 C45.75282227 20.92337891 45.75282227 20.92337891 47.14453125 20.96875 C47.96928955 20.98744141 48.79404785 21.00613281 49.64379883 21.02539062 C51.6875 21.3125 51.6875 21.3125 53.6875 23.3125 C53.875 26.875 53.875 26.875 53.6875 30.3125 C51.42344397 32.57655603 46.15606565 31.55331575 43.125 31.5625 C26.22423974 31.55532833 8.66508055 29.17599591 -4.3125 17.3125 C-7.51969014 14.08070227 -10.16480319 10.78851756 -11.3125 6.3125 C-10.44725012 -1.30169897 -6.66723061 0.07326627 0 0 Z " fill="#DF5530" transform="translate(413.3125,142.6875)"/>
<path d="M0 0 C1.25586914 -0.00386719 1.25586914 -0.00386719 2.53710938 -0.0078125 C3.41302734 -0.00007812 4.28894531 0.00765625 5.19140625 0.015625 C6.06345703 0.00789062 6.93550781 0.00015625 7.83398438 -0.0078125 C8.67251953 -0.00523437 9.51105469 -0.00265625 10.375 0 C11.14255615 0.00225586 11.9101123 0.00451172 12.70092773 0.00683594 C14.75390625 0.265625 14.75390625 0.265625 17.75390625 2.265625 C18.1262207 4.73999023 18.1262207 4.73999023 18.1171875 7.82421875 C18.11654297 8.93216797 18.11589844 10.04011719 18.11523438 11.18164062 C18.09912109 12.34373047 18.08300781 13.50582031 18.06640625 14.703125 C18.07124023 16.44045898 18.07124023 16.44045898 18.07617188 18.21289062 C18.02086962 26.86517995 18.02086962 26.86517995 15.75390625 30.265625 C12.83941788 30.91411629 9.85692497 30.7287574 6.87890625 30.703125 C5.65494141 30.7330957 5.65494141 30.7330957 4.40625 30.76367188 C3.61605469 30.76302734 2.82585937 30.76238281 2.01171875 30.76171875 C1.29129395 30.76357178 0.57086914 30.7654248 -0.17138672 30.76733398 C-3.19754426 30.03554371 -4.37837116 28.72082654 -6.24609375 26.265625 C-6.73193359 23.64013672 -6.73193359 23.64013672 -6.70703125 20.6953125 C-6.70316406 19.63441406 -6.69929688 18.57351562 -6.6953125 17.48046875 C-6.67082031 16.37832031 -6.64632813 15.27617187 -6.62109375 14.140625 C-6.61980469 13.03074219 -6.61851562 11.92085937 -6.6171875 10.77734375 C-6.49925336 0.01912952 -6.49925336 0.01912952 0 0 Z " fill="#DF542F" transform="translate(486.24609375,143.734375)"/>
<path d="M0 0 C0.83853516 0.00064453 1.67707031 0.00128906 2.54101562 0.00195312 C3.8490918 0.02612305 3.8490918 0.02612305 5.18359375 0.05078125 C6.05951172 0.04755859 6.93542969 0.04433594 7.83789062 0.04101562 C14.35400694 0.09619444 14.35400694 0.09619444 16.62109375 2.36328125 C16.86401367 4.85351562 16.86401367 4.85351562 16.8515625 7.95703125 C16.84962891 9.06949219 16.84769531 10.18195313 16.84570312 11.328125 C16.82733398 13.07802734 16.82733398 13.07802734 16.80859375 14.86328125 C16.80794922 16.02988281 16.80730469 17.19648438 16.80664062 18.3984375 C16.7613574 27.08275395 16.7613574 27.08275395 15.62109375 29.36328125 C11.78247336 30.64282138 8.12306485 30.6256731 4.12109375 30.67578125 C2.96287109 30.71928711 2.96287109 30.71928711 1.78125 30.76367188 C-0.47265625 30.7890625 -0.47265625 30.7890625 -4.37890625 30.36328125 C-6.54216907 28.23135225 -7.30299766 26.85563676 -7.76708984 23.84545898 C-7.77047363 22.92192627 -7.77385742 21.99839355 -7.77734375 21.046875 C-7.78121094 20.03560547 -7.78507812 19.02433594 -7.7890625 17.98242188 C-7.77746094 16.93248047 -7.76585938 15.88253906 -7.75390625 14.80078125 C-7.76550781 13.74697266 -7.77710937 12.69316406 -7.7890625 11.60742188 C-7.78519531 10.59744141 -7.78132813 9.58746094 -7.77734375 8.546875 C-7.77395996 7.62447021 -7.77057617 6.70206543 -7.76708984 5.75170898 C-7.37890625 3.36328125 -7.37890625 3.36328125 -6.12768555 1.56201172 C-3.93308085 0.05768266 -2.64754816 -0.01028228 0 0 Z " fill="#BE2A38" transform="translate(130.37890625,142.63671875)"/>
<path d="M0 0 C1.06734375 -0.01740234 1.06734375 -0.01740234 2.15625 -0.03515625 C6.45099466 -0.0111185 8.94877428 0.30841437 12 3.375 C12.48583984 5.79516602 12.48583984 5.79516602 12.4609375 8.62890625 C12.45707031 9.64791016 12.45320313 10.66691406 12.44921875 11.71679688 C12.42472656 12.77962891 12.40023437 13.84246094 12.375 14.9375 C12.37371094 16.00419922 12.37242187 17.07089844 12.37109375 18.16992188 C12.28075953 26.09424047 12.28075953 26.09424047 10 28.375 C6.6864424 28.82304715 3.34040137 28.69909862 0 28.6875 C-0.928125 28.70361328 -1.85625 28.71972656 -2.8125 28.73632812 C-3.699375 28.73697266 -4.58625 28.73761719 -5.5 28.73828125 C-6.72203125 28.74275269 -6.72203125 28.74275269 -7.96875 28.74731445 C-8.6390625 28.62445068 -9.309375 28.50158691 -10 28.375 C-12.98091108 23.90363338 -12.36829007 19.63558588 -12.375 14.375 C-12.39949219 13.364375 -12.42398438 12.35375 -12.44921875 11.3125 C-12.45308594 10.343125 -12.45695312 9.37375 -12.4609375 8.375 C-12.46915527 7.488125 -12.47737305 6.60125 -12.48583984 5.6875 C-12 3.375 -12 3.375 -10.20556641 1.58740234 C-6.90869136 -0.22489359 -3.66226878 -0.0597109 0 0 Z " fill="#BE2B39" transform="translate(135,108.625)"/>
<path d="M0 0 C1.39895508 -0.01836914 1.39895508 -0.01836914 2.82617188 -0.03710938 C4.16325195 -0.04000977 4.16325195 -0.04000977 5.52734375 -0.04296875 C6.348396 -0.04707764 7.16944824 -0.05118652 8.01538086 -0.05541992 C10.0625 0.1875 10.0625 0.1875 12.0625 2.1875 C12.32128906 4.49414062 12.32128906 4.49414062 12.328125 7.34375 C12.33199219 8.87708984 12.33199219 8.87708984 12.3359375 10.44140625 C12.32820313 11.51261719 12.32046875 12.58382812 12.3125 13.6875 C12.32023437 14.75871094 12.32796875 15.82992187 12.3359375 16.93359375 C12.33335937 17.95582031 12.33078125 18.97804687 12.328125 20.03125 C12.32586914 20.97162109 12.32361328 21.91199219 12.32128906 22.88085938 C12.0625 25.1875 12.0625 25.1875 10.0625 27.1875 C8.01538086 27.43041992 8.01538086 27.43041992 5.52734375 27.41796875 C4.63595703 27.41603516 3.74457031 27.41410156 2.82617188 27.41210938 C1.89353516 27.39986328 0.96089844 27.38761719 0 27.375 C-1.40475586 27.3740332 -1.40475586 27.3740332 -2.83789062 27.37304688 C-9.79730776 27.32769224 -9.79730776 27.32769224 -10.9375 26.1875 C-11.03709621 24.34590977 -11.06830411 22.50053033 -11.0703125 20.65625 C-11.07160156 19.53605469 -11.07289063 18.41585937 -11.07421875 17.26171875 C-11.07035156 16.08222656 -11.06648438 14.90273437 -11.0625 13.6875 C-11.06636719 12.50800781 -11.07023437 11.32851562 -11.07421875 10.11328125 C-11.07292969 8.99308594 -11.07164062 7.87289062 -11.0703125 6.71875 C-11.06918457 5.68298828 -11.06805664 4.64722656 -11.06689453 3.58007812 C-10.76927493 -1.92307679 -4.29949026 0.00295904 0 0 Z " fill="#DE4F29" transform="translate(357.9375,109.8125)"/>
<path d="M0 0 C0.75079834 0.00128906 1.50159668 0.00257812 2.27514648 0.00390625 C7.63532687 0.09719776 11.79940571 0.84836674 16.625 3.3125 C16.3125 5.1875 16.3125 5.1875 15.625 7.3125 C12.625 9.3125 12.625 9.3125 10.78515625 9.0703125 C9.74681641 8.75707031 9.74681641 8.75707031 8.6875 8.4375 C-6.82567609 4.69638036 -19.23424708 10.59336482 -32.8125 17.5 C-46.48760212 24.43742266 -59.55091806 27.00261106 -74.58984375 22.359375 C-76.84395605 21.03748857 -77.43060573 19.70562475 -78.375 17.3125 C-78.045 16.9825 -77.715 16.6525 -77.375 16.3125 C-70.60514019 16.97838785 -70.60514019 16.97838785 -67.4765625 17.828125 C-50.34650501 21.77631669 -34.25331349 12.0389022 -19.46484375 4.73828125 C-12.76924538 1.50195486 -7.40628842 -0.0524397 0 0 Z " fill="#BF2D3B" transform="translate(334.375,13.6875)"/>
<path d="M0 0 C4.00646072 1.50039521 7.79972303 3.34347123 11.63574219 5.22485352 C24.39927447 11.44263155 35.56085256 15.57668851 50 14 C52.71805819 12.95004776 54.58381776 11.68082242 57 10 C60.06377384 9.51258143 61.26458107 9.49281453 63.8125 11.25 C65 13 65 13 65 17 C55.94120762 22.76468606 47.55977175 24.5618544 37 23 C25.87985998 20.49195606 5.5388588 13.8082882 -1 4 C-0.625 1.8125 -0.625 1.8125 0 0 Z " fill="#BF2E3B" transform="translate(373,38)"/>
<path d="M0 0 C0.75539063 0.07605469 1.51078125 0.15210938 2.2890625 0.23046875 C4.79558565 0.92985442 5.82156349 1.73960224 7.375 3.8125 C7.375 4.8025 7.375 5.7925 7.375 6.8125 C6.75496094 6.76867188 6.13492188 6.72484375 5.49609375 6.6796875 C-2.34891791 6.70252596 -7.03465085 9.52400063 -13.14477539 14.04248047 C-22.4535945 20.87642074 -31.23301323 21.81866174 -42.625 20.8125 C-49.69162865 19.20762463 -55.71924279 15.94145347 -61.625 11.8125 C-61.295 10.4925 -60.965 9.1725 -60.625 7.8125 C-55.97730087 8.27726991 -52.58909749 9.67146683 -48.5546875 11.875 C-42.15445002 14.98442711 -34.56028431 14.53429122 -27.8125 12.875 C-23.11257078 10.86631656 -18.86351624 7.88257318 -14.63549805 5.03735352 C-9.77747117 1.78300007 -5.95524924 -0.7060347 0 0 Z " fill="#C0303D" transform="translate(360.625,35.1875)"/>
<path d="M0 0 C0 3.74016583 -0.9341591 4.45276193 -3.375 7.1875 C-4.00148438 7.90292969 -4.62796875 8.61835937 -5.2734375 9.35546875 C-7 11 -7 11 -9 11 C-7.59928507 5.70841026 -4.14512755 3.22521956 0 0 Z " fill="#E15C38" transform="translate(412,117)"/>
<path d="M0 0 C0 3 0 3 -2.375 5.6875 C-5 8 -5 8 -7 8 C-5.50902342 4.2047869 -3.24299151 2.38957269 0 0 Z " fill="#C13340" transform="translate(263,140)"/>
</svg>
